<svg width="18" height="18" viewBox="0 0 18 18" fill="none" xmlns="http://www.w3.org/2000/svg">
<g clip-path="url(#clip0_1_2045)">
<path d="M3.99975 9.70236L12.01 17.7124C12.1952 17.8979 12.4426 18 12.7063 18C12.97 18 13.2173 17.8979 13.4026 17.7124L13.9925 17.1227C14.3763 16.7384 14.3763 16.1138 13.9925 15.7301L7.26607 9.00373L13.9999 2.26988C14.1852 2.08447 14.2875 1.8373 14.2875 1.57374C14.2875 1.30989 14.1852 1.06272 13.9999 0.877163L13.41 0.287558C13.2246 0.102144 12.9774 1.14527e-07 12.7137 1.37581e-07C12.45 1.60635e-07 12.2027 0.102144 12.0174 0.287558L3.99975 8.30496C3.81405 8.49096 3.71205 8.73929 3.71263 9.00329C3.71205 9.26832 3.81405 9.51651 3.99975 9.70236Z" fill="#BFBFBF"/>
</g>
<defs>
<clipPath id="clip0_1_2045">
<rect width="18" height="18" fill="white" transform="translate(18 18) rotate(180)"/>
</clipPath>
</defs>
</svg>
