<svg width="32" height="32" viewBox="0 0 32 32" fill="none" xmlns="http://www.w3.org/2000/svg">
<g clip-path="url(#clip0_1_2027)">
<path d="M23.375 2.9502C20.7131 2.9502 18.3796 4.13713 16.6268 6.38276C16.3931 6.68226 16.1847 6.98188 16 7.27207C15.8153 6.98182 15.6069 6.68226 15.3732 6.38276C13.6204 4.13713 11.2869 2.9502 8.625 2.9502C3.5965 2.9502 0 7.16063 0 12.2129C0 17.99 4.73481 23.4346 15.3523 29.8667C15.5514 29.9873 15.7757 30.0476 16 30.0476C16.2243 30.0476 16.4486 29.9873 16.6477 29.8668C27.2652 23.4347 32 17.9901 32 12.213C32 7.16332 28.4064 2.9502 23.375 2.9502ZM26.1973 19.4064C23.9869 21.8728 20.6466 24.4698 16 27.3328C11.3534 24.4698 8.01313 21.8728 5.80269 19.4064C3.58031 16.9267 2.5 14.5737 2.5 12.213C2.5 8.57526 4.95837 5.4502 8.625 5.4502C10.4922 5.4502 12.0844 6.26207 13.3572 7.86332C14.3749 9.14388 14.8038 10.4662 14.8068 10.4756C14.9696 10.9978 15.4531 11.3535 16.0001 11.3535C16.5471 11.3535 17.0306 10.9979 17.1934 10.4756C17.1973 10.463 17.6133 9.18195 18.5976 7.92095C19.8773 6.28145 21.4846 5.45013 23.375 5.45013C27.0455 5.45013 29.5 8.5782 29.5 12.2129C29.5 14.5736 28.4197 16.9266 26.1973 19.4064Z" fill="white"/>
<path d="M15.7051 12.5592C15.7051 13.3441 15.5699 13.8389 15.1762 14.5279C15.0198 14.8016 14.1358 11.5844 14.1184 10.9724C14.0799 9.6276 12.7507 8.95831 11.797 8.00462C11.199 7.40662 9.91602 6.78947 9.09366 6.7411C8.26078 6.69211 6.23483 6.63149 5.93486 7.68139C5.63552 8.72907 4.5646 9.17158 4.31873 10.0321C4.14177 10.6515 3.1237 12.7021 3.93673 13.3525C4.22793 13.5855 4.2613 14.2602 4.65665 14.6161C5.31569 15.2092 5.18035 15.3251 5.40594 16.1147C5.51239 16.4872 7.80653 18.4571 6.44908 18.3772C5.74608 18.3359 5.30361 16.152 4.9211 15.6739C4.55902 15.2213 4.33982 14.68 4.99457 15.2037C5.33621 15.4771 5.36886 16.1216 5.71448 16.4673C6.47379 17.2266 7.33688 17.8252 8.0946 18.5829C8.33641 18.8247 8.72045 19.5172 8.81451 19.8464C9.05251 20.6794 7.84113 19.7383 7.65383 19.6848C6.85567 19.4568 9.10661 20.5033 9.7548 21.0218C10.6136 21.7088 11.4316 22.3284 12.3847 22.873C13.3457 23.4222 14.0155 24.4094 15.0293 24.9887C15.3233 25.1567 16.0117 26.1513 16.4397 25.7233C16.7163 25.4467 16.4985 24.0583 16.4985 23.6664C16.4985 22.0829 16.4486 21.0689 15.7639 19.6995C15.0657 18.3031 14.6045 16.8519 13.9127 15.4682C13.2752 14.1933 13.3365 12.8398 12.2084 11.8246C11.4399 11.1329 9.68501 11.3608 9.09366 10.326C8.81928 9.8458 8.13783 9.70241 7.83014 9.12122C7.29424 8.10897 7.50691 9.78644 7.50691 10.179C7.50691 10.7096 6.85484 12.2155 7.03677 12.5592C7.29278 13.0428 7.86524 13.4686 8.16806 14.0137C8.53235 14.6694 8.38745 15.4682 9.35812 15.4682C9.85305 15.4682 11.0071 14.5982 10.2984 14.3957C9.78436 14.2488 9.62258 12.9412 9.62258 12.9412C9.62258 12.9412 9.62258 14.8022 9.62258 15.7327C9.62258 16.4312 9.88703 17.0736 9.88703 17.7161C9.88703 18.7809 10.6517 16.6939 10.6804 16.3203C10.8032 14.7236 10.7969 13.3554 9.09366 12.3535C8.15303 11.8002 8.51512 12.3938 8.96143 13.0881C9.57392 14.0408 9.7913 15.0021 10.2103 15.9971C10.8289 17.4665 11.3634 18.2543 12.3847 19.5673C12.7775 20.0723 13.2446 20.295 13.6482 20.6986C13.9345 20.9848 14.6473 21.7939 14.6473 21.3891C14.6473 20.5074 13.9027 19.7854 13.8539 18.9062C13.8294 18.4644 13.5569 17.3463 13.1928 17.0549C12.8188 16.7558 12.6886 15.3142 13.0605 15.7327C13.6631 16.4106 14.1184 18.6526 14.1184 19.5673C14.1184 20.2668 15.4406 22.72 15.4406 21.5507" stroke="white" stroke-width="3" stroke-linecap="round"/>
<path d="M23.1099 13.3525C23.1099 12.0006 22.8455 10.6361 22.8455 9.25345C22.8455 8.07643 20.9994 9.9146 20.5976 9.9146C19.7841 9.9146 19.1431 11.2228 19.1431 11.898C19.1431 13.1918 17.8208 13.1918 17.8208 11.898C17.8208 10.9825 19.0192 10.5009 19.1431 9.38568C19.2468 8.4525 20.4063 7.53448 21.2587 7.53448C22.1781 7.53448 23.6417 7.88815 24.109 7.00556C25.16 5.02037 22.6579 6.70745 22.0521 6.74111C20.3843 6.83376 22.9571 7.00556 23.5066 7.00556C24.0513 7.00556 25.9574 6.99469 26.2834 7.40225C27.1582 8.49573 29.5478 10.8618 28.5313 12.6914C27.6242 14.3243 28.0219 16.2274 26.6067 17.6426C25.2546 18.9947 24.1226 20.5394 22.6398 21.874C21.9233 22.5188 20.7999 22.7854 20.2009 23.5342C19.8472 23.9763 18.4935 25.0798 17.9383 25.2385C16.9556 25.5192 16.9024 20.7574 19.2753 20.7574C20.2232 20.7574 20.8171 19.6294 21.2 18.9062C21.6719 18.0147 22.5653 17.4005 23.0512 16.526C23.6029 15.5328 23.9935 14.258 24.7554 13.4113C25.3968 12.6987 25.0565 11.6366 25.8133 11.0312C26.4423 10.528 26.2834 13.1424 26.2834 13.4848C26.2834 14.0991 26.1007 15.6144 25.6223 15.9971C24.9354 16.5466 24.4637 18.0033 24.0355 18.7739C23.9006 19.0168 22.9446 20.9061 22.8602 20.6104C22.3781 18.9233 23.3284 16.3365 23.6976 14.6748C23.9693 13.4523 23.9033 12.2246 23.9033 10.9724C23.9033 10.4435 23.9033 9.9146 23.9033 9.38568C23.9033 8.68237 23.6697 10.7802 23.4332 11.4426C22.9811 12.7084 22.3875 14.0182 21.7289 15.2038C21.2046 16.1474 20.4615 17.4189 19.8189 18.245C19.0537 19.2289 18.8786 21.1966 18.8786 18.627C18.8786 15.2194 20.8942 11.8289 23.5066 9.79706C24.2749 9.19952 24.9611 8.8134 24.9611 10.1791C24.9611 12.5573 21.7508 13.8509 20.3184 15.2038C19.4018 16.0695 18.7475 16.9389 18.2909 18.1716C17.6227 19.9759 16.4386 22.6159 16.4985 18.9649C16.5179 17.7824 16.8659 14.9393 18.4819 14.9393C19.756 14.9393 17.1262 19.4458 16.7629 20.0815C16.3444 20.8139 15.4664 21.1871 15.044 21.9474C14.5119 22.9051 13.8169 23.5694 12.9283 24.0631C12.115 24.5149 11.9275 23.0773 11.415 22.6673C10.8852 22.2434 9.67274 21.61 9.62259 20.7574C9.54363 19.4151 9.84588 19.0649 10.7392 18.1716C11.8575 17.0532 8.8574 17.3949 8.35907 16.9962C6.46709 15.4826 6.4491 13.2939 6.4491 11.1047C6.4491 10.3527 6.43411 9.1444 7.38939 8.87146C7.88434 8.73005 10.057 8.27586 10.416 8.72454C10.9548 9.39813 10.8038 10.3025 11.4738 10.9724C11.8539 11.3525 12.304 11.4048 12.2672 12.0303C12.2327 12.6165 11.0004 12.1947 10.7392 12.0303C8.81622 10.8195 8.15067 8.06339 5.65572 8.06339C4.46559 8.06339 3.95142 12.4651 4.73012 13.0881C5.14268 13.4181 6.04041 15.2038 5.25904 15.2038C4.84177 15.2038 4.41803 14.2453 4.73012 14.8071C4.89395 15.102 5.5637 15.8664 5.37657 15.5857C5.19171 15.3084 4.32811 14.0337 4.27467 14.0872C3.3912 14.9706 6.575 14.4104 6.97801 14.4104C9.86914 14.4104 12.4855 15.3129 14.9117 16.526" stroke="white" stroke-width="3" stroke-linecap="round"/>
<path d="M17.0274 13.617C18.3645 13.617 19.9364 13.0699 19.9364 14.6749C19.9364 15.9024 18.8786 16.6525 18.8786 17.9806C18.8786 19.3619 19.3648 20.6312 19.6573 21.9474C19.9259 23.1563 19.672 21.2294 19.672 20.7574C19.672 20.2265 19.8844 19.1446 19.4075 18.9062" stroke="#FFFAFA" stroke-width="3" stroke-linecap="round"/>
</g>
<defs>
<clipPath id="clip0_1_2027">
<rect width="32" height="32" fill="white" transform="translate(0 0.5)"/>
</clipPath>
</defs>
</svg>
