<svg width="32" height="33" viewBox="0 0 32 33" fill="none" xmlns="http://www.w3.org/2000/svg">
<path d="M23.375 2.9502C20.7131 2.9502 18.3796 4.13713 16.6268 6.38276C16.3931 6.68226 16.1847 6.98188 16 7.27207C15.8153 6.98182 15.6069 6.68226 15.3732 6.38276C13.6204 4.13713 11.2869 2.9502 8.625 2.9502C3.5965 2.9502 0 7.16063 0 12.2129C0 17.99 4.73481 23.4346 15.3523 29.8667C15.5514 29.9873 15.7757 30.0476 16 30.0476C16.2243 30.0476 16.4486 29.9873 16.6477 29.8668C27.2652 23.4347 32 17.9901 32 12.213C32 7.16332 28.4064 2.9502 23.375 2.9502ZM26.1973 19.4064C23.9869 21.8728 20.6466 24.4698 16 27.3328C11.3534 24.4698 8.01313 21.8728 5.80269 19.4064C3.58031 16.9267 2.5 14.5737 2.5 12.213C2.5 8.57526 4.95837 5.4502 8.625 5.4502C10.4923 5.4502 12.0844 6.26207 13.3572 7.86332C14.3749 9.14388 14.8038 10.4662 14.8068 10.4756C14.9696 10.9978 15.4531 11.3535 16.0001 11.3535C16.5471 11.3535 17.0306 10.9979 17.1934 10.4756C17.1973 10.463 17.6133 9.18195 18.5976 7.92095C19.8773 6.28145 21.4846 5.45013 23.375 5.45013C27.0455 5.45013 29.5 8.5782 29.5 12.2129C29.5 14.5736 28.4197 16.9266 26.1973 19.4064Z" fill="#BFBFBF"/>
</svg>
