<svg width="21" height="21" viewBox="0 0 21 21" fill="none" xmlns="http://www.w3.org/2000/svg">
<g clip-path="url(#clip0_1_3816)">
<path d="M19.2569 8.16815L10.9461 2.20892C10.6808 2.02356 10.3227 2.02149 10.0544 2.20892L1.74357 8.16815C0.904843 8.76952 -0.00620633 7.50164 0.833766 6.89934L9.14781 0.937838C9.14964 0.936511 9.15148 0.935223 9.15335 0.933896C9.95582 0.368945 11.0354 0.362309 11.8472 0.933896C11.8491 0.935184 11.8509 0.936511 11.8528 0.937838L20.1667 6.89934C21.0084 7.50285 20.0884 8.76437 19.2569 8.16815Z" fill="white"/>
<path d="M16.5913 20.4923H12.0635C11.6324 20.4923 11.2829 20.1428 11.2829 19.7116V16.5891C11.2829 16.1586 10.9327 15.8084 10.5022 15.8084C10.0718 15.8084 9.72159 16.1586 9.72159 16.5891V19.7116C9.72159 20.1428 9.3721 20.4923 8.94095 20.4923H4.41322C3.12188 20.4923 2.07129 19.4417 2.07129 18.1503V11.1483C2.07129 10.3888 2.44124 9.6744 3.06111 9.23607L9.14774 4.8423C9.15024 4.84046 9.15278 4.83867 9.15535 4.83687C9.95781 4.27207 11.0372 4.2654 11.8491 4.83687C11.8517 4.83867 11.8542 4.84046 11.8567 4.8423L17.9434 9.23611C18.5633 9.67444 18.9332 10.3889 18.9332 11.1483V18.1504C18.9332 19.4417 17.8826 20.4923 16.5913 20.4923Z" fill="white"/>
</g>
<defs>
<clipPath id="clip0_1_3816">
<rect width="20" height="20" fill="white" transform="translate(0.5 0.5)"/>
</clipPath>
</defs>
</svg>
