<svg width="24" height="24" viewBox="0 0 24 24" fill="none" xmlns="http://www.w3.org/2000/svg">
<path fill-rule="evenodd" clip-rule="evenodd" d="M19.4357 8.36393C19.4357 6.90822 18.256 5.72852 16.8003 5.72852C13.6656 5.72852 7.47667 5.72852 4.34196 5.72852C2.88625 5.72852 1.70654 6.90822 1.70654 8.36393V17.9473C1.70654 19.403 2.88625 20.5827 4.34196 20.5827H16.8003C18.256 20.5827 19.4357 19.403 19.4357 17.9473V8.36393ZM17.9982 8.36393V17.9473C17.9982 18.6085 17.4615 19.1452 16.8003 19.1452C13.6656 19.1452 7.47667 19.1452 4.34196 19.1452C3.68071 19.1452 3.14404 18.6085 3.14404 17.9473V8.36393C3.14404 7.70268 3.68071 7.16602 4.34196 7.16602H16.8003C17.4615 7.16602 17.9982 7.70268 17.9982 8.36393Z" fill="white"/>
<path fill-rule="evenodd" clip-rule="evenodd" d="M5.26292 7.16506L5.30029 7.16602L5.33096 7.16218C5.46896 7.14206 6.01904 7.02514 6.01904 6.43481V5.48893C6.01904 5.17077 6.14554 4.86697 6.36979 4.64177C6.595 4.41752 6.89879 4.29102 7.21696 4.29102H19.6753C20.3365 4.29102 20.8732 4.82768 20.8732 5.48893V15.0723C20.8732 15.3904 20.7467 15.6942 20.5225 15.9194C20.2973 16.1437 19.9935 16.2702 19.6753 16.2702H18.717C18.3202 16.2702 17.9982 16.5922 17.9982 16.9889C17.9982 17.3857 18.3202 17.7077 18.717 17.7077H19.6753C20.3739 17.7077 21.0448 17.4298 21.5393 16.9362C22.0328 16.4417 22.3107 15.7709 22.3107 15.0723V5.48893C22.3107 4.03322 21.131 2.85352 19.6753 2.85352C16.5406 2.85352 10.3517 2.85352 7.21696 2.85352C6.51833 2.85352 5.8475 3.13143 5.353 3.62497C4.85946 4.11947 4.58154 4.79031 4.58154 5.48893V6.43481V6.44727C4.58154 6.83156 4.88342 7.14589 5.26292 7.16506Z" fill="white"/>
<path fill-rule="evenodd" clip-rule="evenodd" d="M9.13786 12.916C7.68311 12.916 6.50244 14.0967 6.50244 15.5514C6.50244 17.0062 7.68311 18.1868 9.13786 18.1868C10.5926 18.1868 11.7733 17.0062 11.7733 15.5514C11.7733 14.0967 10.5926 12.916 9.13786 12.916ZM9.13786 14.3535C9.79911 14.3535 10.3358 14.8902 10.3358 15.5514C10.3358 16.2127 9.79911 16.7493 9.13786 16.7493C8.47661 16.7493 7.93994 16.2127 7.93994 15.5514C7.93994 14.8902 8.47661 14.3535 9.13786 14.3535Z" fill="white"/>
<path fill-rule="evenodd" clip-rule="evenodd" d="M11.769 15.5514V10.1857L13.5266 11.3577C13.8563 11.5781 14.3029 11.488 14.5233 11.1584C14.7437 10.8287 14.6536 10.3821 14.324 10.1617L11.449 8.24504C11.2285 8.09841 10.9449 8.08404 10.711 8.20958C10.4772 8.33416 10.3315 8.57758 10.3315 8.84304V15.5514C10.3315 15.9481 10.6535 16.2701 11.0503 16.2701C11.447 16.2701 11.769 15.9481 11.769 15.5514V15.5514Z" fill="white"/>
<rect x="3" y="7.21802" width="15" height="12" fill="#D9D9D9" fill-opacity="0.62"/>
</svg>
