<svg width="23" height="23" viewBox="0 0 23 23" fill="none" xmlns="http://www.w3.org/2000/svg">
<path fill-rule="evenodd" clip-rule="evenodd" d="M18.9357 8.14591C18.9357 6.69021 17.756 5.5105 16.3003 5.5105C13.1656 5.5105 6.97667 5.5105 3.84196 5.5105C2.38625 5.5105 1.20654 6.69021 1.20654 8.14591V17.7292C1.20654 19.185 2.38625 20.3647 3.84196 20.3647H16.3003C17.756 20.3647 18.9357 19.185 18.9357 17.7292V8.14591ZM17.4982 8.14591V17.7292C17.4982 18.3905 16.9615 18.9272 16.3003 18.9272C13.1656 18.9272 6.97667 18.9272 3.84196 18.9272C3.18071 18.9272 2.64404 18.3905 2.64404 17.7292V8.14591C2.64404 7.48466 3.18071 6.948 3.84196 6.948H16.3003C16.9615 6.948 17.4982 7.48466 17.4982 8.14591Z" fill="#BFBFBF"/>
<path fill-rule="evenodd" clip-rule="evenodd" d="M4.76292 6.94704L4.80029 6.948L4.83096 6.94416C4.96896 6.92404 5.51904 6.80712 5.51904 6.21679V5.27091C5.51904 4.95275 5.64554 4.64896 5.86979 4.42375C6.095 4.1995 6.39879 4.073 6.71696 4.073H19.1753C19.8365 4.073 20.3732 4.60966 20.3732 5.27091V14.8542C20.3732 15.1724 20.2467 15.4762 20.0225 15.7014C19.7973 15.9257 19.4935 16.0522 19.1753 16.0522H18.217C17.8202 16.0522 17.4982 16.3742 17.4982 16.7709C17.4982 17.1677 17.8202 17.4897 18.217 17.4897H19.1753C19.8739 17.4897 20.5448 17.2117 21.0393 16.7182C21.5328 16.2237 21.8107 15.5529 21.8107 14.8542V5.27091C21.8107 3.81521 20.631 2.6355 19.1753 2.6355C16.0406 2.6355 9.85167 2.6355 6.71696 2.6355C6.01833 2.6355 5.3475 2.91341 4.853 3.40696C4.35946 3.90146 4.08154 4.57229 4.08154 5.27091V6.21679V6.22925C4.08154 6.61354 4.38342 6.92787 4.76292 6.94704Z" fill="#BFBFBF"/>
<path fill-rule="evenodd" clip-rule="evenodd" d="M8.63786 12.698C7.18311 12.698 6.00244 13.8787 6.00244 15.3334C6.00244 16.7882 7.18311 17.9688 8.63786 17.9688C10.0926 17.9688 11.2733 16.7882 11.2733 15.3334C11.2733 13.8787 10.0926 12.698 8.63786 12.698ZM8.63786 14.1355C9.29911 14.1355 9.83577 14.6722 9.83577 15.3334C9.83577 15.9947 9.29911 16.5313 8.63786 16.5313C7.97661 16.5313 7.43994 15.9947 7.43994 15.3334C7.43994 14.6722 7.97661 14.1355 8.63786 14.1355Z" fill="#BFBFBF"/>
<path fill-rule="evenodd" clip-rule="evenodd" d="M11.269 15.3334V9.96764L13.0266 11.1397C13.3563 11.3601 13.8029 11.27 14.0233 10.9404C14.2437 10.6107 14.1536 10.1641 13.824 9.94369L10.949 8.02702C10.7285 7.88039 10.4449 7.86602 10.211 7.99156C9.97721 8.11614 9.83154 8.35956 9.83154 8.62502V15.3334C9.83154 15.7301 10.1535 16.0521 10.5503 16.0521C10.947 16.0521 11.269 15.7301 11.269 15.3334Z" fill="#BFBFBF"/>
</svg>
