<svg width="20" height="22" viewBox="0 0 20 22" fill="none" xmlns="http://www.w3.org/2000/svg">
<g clip-path="url(#clip0_1_3835)">
<path d="M14.6094 2.7821C12.9457 2.7821 11.4873 3.52394 10.3918 4.92746C10.2457 5.11464 10.1154 5.30191 10 5.48328C9.88457 5.30187 9.75434 5.11464 9.60824 4.92746C8.51273 3.52394 7.0543 2.7821 5.39062 2.7821C2.24781 2.7821 0 5.41363 0 8.57132C0 12.182 2.95926 15.5849 9.5952 19.6049C9.71961 19.6803 9.8598 19.718 10 19.718C10.1402 19.718 10.2804 19.6803 10.4048 19.605C17.0407 15.5849 20 12.182 20 8.57136C20 5.41531 17.754 2.7821 14.6094 2.7821ZM16.3733 13.0672C14.9918 14.6087 12.9041 16.2318 10 18.0212C7.0959 16.2318 5.0082 14.6087 3.62668 13.0673C2.2377 11.5174 1.5625 10.0468 1.5625 8.57136C1.5625 6.29777 3.09898 4.3446 5.39062 4.3446C6.55766 4.3446 7.55273 4.85203 8.34824 5.85281C8.98434 6.65316 9.25234 7.4796 9.25422 7.4855C9.35598 7.81187 9.65816 8.03417 10 8.03417C10.3419 8.03417 10.6441 7.81191 10.7459 7.4855C10.7483 7.47761 11.0083 6.67695 11.6235 5.88882C12.4233 4.86414 13.4279 4.34457 14.6094 4.34457C16.9034 4.34457 18.4375 6.2996 18.4375 8.57132C18.4375 10.0468 17.7623 11.5174 16.3733 13.0672Z" fill="white"/>
<path d="M11.4933 6.60614C11.5661 7.26103 12.5259 8.13228 13.1997 7.93977C13.7707 7.77663 12.5026 5.94284 13.5062 5.71982C14.1129 5.58501 15.2821 5.59642 15.8173 5.89377C16.481 6.26251 16.4033 7.00325 16.8278 7.53388C17.7624 8.70207 17.1145 10.0271 15.8918 10.7064C15.3116 11.0288 14.7721 11.6401 14.3594 12.156C14.1498 12.418 14.7138 12.1352 14.9227 12.1229C15.1253 12.111 15.5446 11.8341 15.7013 11.7087C15.7724 11.6518 16.4314 11.3838 16.1817 11.5265C15.8757 11.7014 15.7456 12.0048 15.5191 12.2637C15.2707 12.5476 14.9724 12.5895 14.699 12.8021C14.0398 13.3148 13.6463 13.9679 12.769 14.2186C12.2091 14.3786 11.7352 15.3369 11.3774 15.7344C11.0695 16.0766 9.93721 16.6793 9.40592 16.4137C9.02481 16.2231 8.88083 15.6235 8.58587 15.3286C8.31016 15.0529 7.96696 14.8588 7.69126 14.5831C7.19269 14.0845 6.5179 13.812 5.91033 13.4648C5.08341 12.9923 3.55902 11.3028 3.30106 10.3999C2.90175 9.00237 2.34878 7.74681 3.11054 6.30794C3.43916 5.68721 4.3642 5.41333 5.00744 5.41333C5.73634 5.41333 6.40886 6.10129 7.10314 6.29965C8.75833 6.77256 9.71207 8.54446 11.6424 8.54446C12.6074 8.54446 13.4373 8.24625 14.4008 8.24625C14.5174 8.24625 15.3784 8.06351 15.3451 8.17999C15.2584 8.48341 13.6089 9.30382 13.2826 9.51361C12.8444 9.7953 12.4069 10.1459 11.9406 10.3668C11.38 10.6324 10.4956 10.5053 9.88636 10.4828C9.41359 10.4653 8.83892 9.89756 8.51131 9.58816C8.08992 9.19018 7.52713 8.9801 7.0203 8.72669C6.4255 8.42929 6.02927 7.84722 5.46302 7.44276C5.41783 7.41048 5.38019 8.78057 5.38019 8.99176C5.38019 9.6638 6.10409 10.0315 6.573 10.3999C7.5926 11.2011 8.54943 11.6756 9.85323 11.6756C10.5138 11.6756 12.1954 11.3612 12.6861 11.8247C13.6829 12.7661 11.5765 13.1417 10.9301 13.1666C10.241 13.1931 8.78397 13.5628 8.36221 12.7193" stroke="white" stroke-width="3" stroke-linecap="round"/>
<path d="M14.4756 13.4647C13.4998 13.5732 13.4023 14.6576 12.3136 14.6576C11.9368 14.6576 11.631 14.7478 11.2616 14.8149C10.6872 14.9194 10.0851 15.3442 9.55527 15.4031C8.80868 15.486 8.17438 15.4289 7.61695 14.7321C7.0852 14.0674 6.57324 13.6423 6.57324 12.7192" stroke="white" stroke-width="3" stroke-linecap="round"/>
<path d="M6.72234 12.7192C6.72234 13.4074 7.15828 14.0356 7.43472 14.6576C7.62002 15.0745 7.04899 14.736 7.02055 14.5085C6.97841 14.1713 6.57324 14.0144 6.57324 13.6138" stroke="white" stroke-width="3" stroke-linecap="round"/>
</g>
<defs>
<clipPath id="clip0_1_3835">
<rect width="20" height="20.9359" fill="white" transform="translate(0 0.782104)"/>
</clipPath>
</defs>
</svg>
