<svg width="21" height="21" viewBox="0 0 21 21" fill="none" xmlns="http://www.w3.org/2000/svg">
<g clip-path="url(#clip0_1_3729)">
<path d="M10.5001 20.4902C1.62359 20.4813 -2.84124 9.7014 3.42906 3.41918C7.15128 -0.459754 13.8489 -0.460379 17.5711 3.41934C23.8414 9.7021 19.376 20.4818 10.5001 20.4902ZM10.5001 2.05278C5.84761 2.05278 2.06257 5.83781 2.06257 10.4903C2.52605 21.6837 18.4757 21.6805 18.9375 10.4902C18.9375 5.83785 15.1525 2.05278 10.5001 2.05278ZM10.5001 11.2715C10.9315 11.2715 11.2813 10.9217 11.2813 10.4903C11.2402 9.45394 9.75979 9.45425 9.71881 10.4903C9.71881 10.9217 10.0686 11.2715 10.5001 11.2715ZM6.08608 15.6856C5.88202 15.6856 5.68237 15.6056 5.53354 15.4568C5.3264 15.2496 5.25257 14.944 5.34226 14.6651L7.49069 7.98546C7.56776 7.74582 7.75557 7.558 7.99522 7.48093L14.6749 5.3325C14.9537 5.24281 15.2593 5.31668 15.4665 5.52379C15.6737 5.73094 15.7475 6.03652 15.6578 6.31543L13.5094 12.9951C13.5038 13.0123 13.4977 13.0293 13.491 13.046C13.3546 13.3871 13.0678 13.4794 12.93 13.5237L6.32518 15.6481C6.24667 15.6733 6.16604 15.6856 6.08608 15.6856ZM8.85537 8.84558L7.29577 13.6946C8.85291 13.1938 11.2275 12.4301 12.1447 12.135L13.7043 7.28597L8.85537 8.84558Z" fill="#BFBFBF"/>
</g>
<defs>
<clipPath id="clip0_1_3729">
<rect width="20" height="20" fill="white" transform="translate(0.5 0.5)"/>
</clipPath>
</defs>
</svg>
