<svg width="20" height="21" viewBox="0 0 20 21" fill="none" xmlns="http://www.w3.org/2000/svg">
<g clip-path="url(#clip0_1_3822)">
<path d="M10.0001 20.7083C1.12359 20.6994 -3.34124 9.91942 2.92906 3.6372C6.65128 -0.241736 13.3489 -0.242361 17.0711 3.63736C23.3414 9.92012 18.876 20.6999 10.0001 20.7083ZM10.0001 2.2708C5.34761 2.2708 1.56257 6.05583 1.56257 10.7083C2.02605 21.9017 17.9757 21.8985 18.4375 10.7082C18.4375 6.05587 14.6525 2.2708 10.0001 2.2708ZM10.0001 11.4895C10.4315 11.4895 10.7813 11.1398 10.7813 10.7083C10.7402 9.67196 9.25979 9.67227 9.21881 10.7083C9.21881 11.1398 9.56857 11.4895 10.0001 11.4895ZM5.58608 15.9036C5.38202 15.9036 5.18237 15.8236 5.03354 15.6748C4.8264 15.4676 4.75257 15.162 4.84226 14.8832L6.99069 8.20348C7.06776 7.96383 7.25557 7.77602 7.49522 7.69895L14.1749 5.55052C14.4537 5.46083 14.7593 5.5347 14.9665 5.74181C15.1737 5.94895 15.2475 6.25454 15.1578 6.53345L13.0094 13.2131C13.0038 13.2303 12.9977 13.2473 12.991 13.2641C12.8546 13.6051 12.5678 13.6974 12.43 13.7418L5.82518 15.8661C5.74667 15.8913 5.66604 15.9036 5.58608 15.9036ZM8.35537 9.0636L6.79577 13.9126C8.35291 13.4118 10.7275 12.6481 11.6447 12.353L13.2043 7.50399L8.35537 9.0636Z" fill="white"/>
</g>
<defs>
<clipPath id="clip0_1_3822">
<rect y="0.718018" width="20" height="20" rx="10" fill="white"/>
</clipPath>
</defs>
</svg>
