<svg width="21" height="21" viewBox="0 0 21 21" fill="none" xmlns="http://www.w3.org/2000/svg">
<g clip-path="url(#clip0_1_3742)">
<path d="M15.1094 2.0321C13.4457 2.0321 11.9873 2.77394 10.8918 4.17746C10.7457 4.36464 10.6154 4.55191 10.5 4.73328C10.3846 4.55187 10.2543 4.36464 10.1082 4.17746C9.01273 2.77394 7.5543 2.0321 5.89062 2.0321C2.74781 2.0321 0.5 4.66363 0.5 7.82132C0.5 11.432 3.45926 14.8349 10.0952 18.8549C10.2196 18.9303 10.3598 18.968 10.5 18.968C10.6402 18.968 10.7804 18.9303 10.9048 18.855C17.5407 14.8349 20.5 11.432 20.5 7.82136C20.5 4.66531 18.254 2.0321 15.1094 2.0321ZM16.8733 12.3172C15.4918 13.8587 13.4041 15.4818 10.5 17.2712C7.5959 15.4818 5.5082 13.8587 4.12668 12.3173C2.7377 10.7674 2.0625 9.29679 2.0625 7.82136C2.0625 5.54777 3.59898 3.5946 5.89062 3.5946C7.05766 3.5946 8.05273 4.10203 8.84824 5.10281C9.48434 5.90316 9.75234 6.7296 9.75422 6.7355C9.85598 7.06187 10.1582 7.28417 10.5 7.28417C10.8419 7.28417 11.1441 7.06191 11.2459 6.7355C11.2483 6.72761 11.5083 5.92695 12.1235 5.13882C12.9233 4.11414 13.9279 3.59457 15.1094 3.59457C17.4034 3.59457 18.9375 5.5496 18.9375 7.82132C18.9375 9.29675 18.2623 10.7674 16.8733 12.3172Z" fill="#BFBFBF"/>
</g>
<defs>
<clipPath id="clip0_1_3742">
<rect width="20" height="20" fill="white" transform="translate(0.5 0.5)"/>
</clipPath>
</defs>
</svg>
